<svg width="12" height="12" viewBox="0 0 12 12" fill="none" xmlns="http://www.w3.org/2000/svg">
<g clip-path="url(#clip0_190_2)">
<rect x="5" y="3" width="2" height="7" fill="white"/>
<path d="M6.73649 1.17449C6.66225 1.04517 6.5552 0.937719 6.42614 0.862999C6.29709 0.788279 6.15061 0.748932 6.00149 0.748932C5.85237 0.748932 5.70589 0.788279 5.57683 0.862999C5.44778 0.937719 5.34073 1.04517 5.26649 1.17449L0.12374 9.92474C-0.21901 10.5082 0.19199 11.25 0.85874 11.25H11.1435C11.8102 11.25 12.222 10.5075 11.8785 9.92474L6.73649 1.17449ZM5.99999 3.74999C6.40124 3.74999 6.71549 4.09649 6.67499 4.49624L6.41249 7.12649C6.40367 7.22982 6.35639 7.32608 6.28001 7.39622C6.20362 7.46636 6.10369 7.50528 5.99999 7.50528C5.89629 7.50528 5.79636 7.46636 5.71997 7.39622C5.64359 7.32608 5.59631 7.22982 5.58749 7.12649L5.32499 4.49624C5.31556 4.40192 5.326 4.30667 5.35562 4.21662C5.38525 4.12657 5.43341 4.04373 5.497 3.97343C5.56059 3.90313 5.6382 3.84692 5.72483 3.80844C5.81146 3.76996 5.9052 3.75005 5.99999 3.74999V3.74999ZM6.00149 8.24999C6.2004 8.24999 6.39117 8.32901 6.53182 8.46966C6.67247 8.61032 6.75149 8.80108 6.75149 8.99999C6.75149 9.19891 6.67247 9.38967 6.53182 9.53032C6.39117 9.67098 6.2004 9.74999 6.00149 9.74999C5.80258 9.74999 5.61181 9.67098 5.47116 9.53032C5.33051 9.38967 5.25149 9.19891 5.25149 8.99999C5.25149 8.80108 5.33051 8.61032 5.47116 8.46966C5.61181 8.32901 5.80258 8.24999 6.00149 8.24999Z" fill="#E85757"/>
</g>
<defs>
<clipPath id="clip0_190_2">
<rect width="12" height="12" fill="white"/>
</clipPath>
</defs>
</svg>
