<svg width="77" height="33" viewBox="0 0 77 33" fill="none" xmlns="http://www.w3.org/2000/svg">
<path d="M41.8145 26H38.3555L29.4824 11.877V26H26.0234V6.09375H29.4824L38.3828 20.2715V6.09375H41.8145V26ZM49.3613 23.2383H58.3984V26H45.9023V6.09375H49.3613V23.2383ZM64.5098 18.6035V26H61.0508V6.09375H68.666C70.89 6.09375 72.6536 6.67253 73.957 7.83008C75.2695 8.98763 75.9258 10.5189 75.9258 12.4238C75.9258 14.3743 75.2832 15.8919 73.998 16.9766C72.722 18.0612 70.931 18.6035 68.625 18.6035H64.5098ZM64.5098 15.8281H68.666C69.8965 15.8281 70.8353 15.541 71.4824 14.9668C72.1296 14.3835 72.4531 13.5449 72.4531 12.4512C72.4531 11.3757 72.125 10.5189 71.4688 9.88086C70.8125 9.23372 69.9102 8.90104 68.7617 8.88281H64.5098V15.8281Z" fill="white"/>
<circle cx="8.42273" cy="12.4227" r="6.92273" stroke="#E67E22" stroke-width="3"/>
<path d="M17.7939 17.6869L22.7247 22.6177C23.429 23.322 23.429 24.464 22.7247 25.1684V25.1684C21.7423 26.1507 20.1495 26.1507 19.1672 25.1684L14.7398 20.741L17.7939 17.6869Z" fill="#E67E22"/>
</svg>
